<?xml version="1.0" encoding="UTF-8" standalone="no"?>
<!-- Created with Inkscape (http://www.inkscape.org/) -->

<svg
   width="500"
   height="500"
   viewBox="0 0 132.29166 132.29167"
   version="1.1"
   id="svg1"
   inkscape:version="1.3.1 (91b66b0, 2023-11-16)"
   sodipodi:docname="logo.svg"
   xmlns:inkscape="http://www.inkscape.org/namespaces/inkscape"
   xmlns:sodipodi="http://sodipodi.sourceforge.net/DTD/sodipodi-0.dtd"
   xmlns="http://www.w3.org/2000/svg"
   xmlns:svg="http://www.w3.org/2000/svg">
  <sodipodi:namedview
     id="namedview1"
     pagecolor="#ffffff"
     bordercolor="#000000"
     borderopacity="0.25"
     inkscape:showpageshadow="2"
     inkscape:pageopacity="0.0"
     inkscape:pagecheckerboard="0"
     inkscape:deskcolor="#d1d1d1"
     inkscape:document-units="mm"
     inkscape:zoom="0.96295543"
     inkscape:cx="235.73261"
     inkscape:cy="218.59786"
     inkscape:window-width="1440"
     inkscape:window-height="900"
     inkscape:window-x="0"
     inkscape:window-y="0"
     inkscape:window-maximized="0"
     inkscape:current-layer="layer1" />
  <defs
     id="defs1">
    <inkscape:path-effect
       effect="roughen"
       id="path-effect6"
       is_visible="true"
       lpeversion="1.2"
       global_randomize="1;1"
       displace_x="0.1;1"
       displace_y="0.1;1"
       method="size"
       max_segment_size="0.1"
       segments="2"
       handles="along"
       shift_nodes="true"
       fixed_displacement="false"
       spray_tool_friendly="false" />
    <inkscape:path-effect
       effect="roughen"
       id="path-effect4"
       is_visible="true"
       lpeversion="1.2"
       global_randomize="1;1"
       displace_x="0.1;1"
       displace_y="0.1;1"
       method="size"
       max_segment_size="0.1"
       segments="2"
       handles="along"
       shift_nodes="true"
       fixed_displacement="false"
       spray_tool_friendly="false" />
    <inkscape:path-effect
       effect="roughen"
       id="path-effect3"
       is_visible="true"
       lpeversion="1.2"
       global_randomize="2;2469084881"
       displace_x="0.5;1"
       displace_y="0.5;1"
       method="size"
       max_segment_size="5"
       segments="2"
       handles="along"
       shift_nodes="true"
       fixed_displacement="false"
       spray_tool_friendly="false" />
  </defs>
  <g
     inkscape:label="Layer 1"
     inkscape:groupmode="layer"
     id="layer1">
    <g
       id="g6"
       transform="matrix(1.0789944,0,0,1.076138,-8.2287588,-4.7578092)"
       style="stroke-width:0.98215243;stroke-dasharray:none">
      <path
         style="fill:#f2f2f2;stroke:#333333;stroke-width:0.98215243;stroke-linecap:round;stroke-linejoin:round;stroke-dasharray:none"
         d="m 65.919357,19.207167 c 1.715947,-0.103759 3.642894,-0.0044 5.200272,0.226729 1.424762,0.04532 3.492075,1.297112 4.992917,1.876135 1.51624,1.108433 2.389966,0.88188 3.541917,1.551009 1.290438,0.599461 2.499306,1.655302 3.735533,2.658142 1.104715,0.972964 2.400625,2.080806 3.55311,3.260809 1.113274,1.140158 2.279554,2.627205 3.354755,3.92112 1.078185,1.470732 1.968261,2.516688 2.959658,3.829635 0.979865,1.381481 2.167862,3.157057 3.199409,4.594263 1.058503,1.705384 1.954702,2.697266 2.917024,4.020613 1.055618,1.429863 2.112218,2.922619 3.161018,4.327787 1.032,1.382665 2.05139,2.783845 3.13288,4.165933 1.12375,1.436093 2.33536,2.870297 3.43559,4.281423 1.17898,1.406753 1.72757,2.732216 2.76088,4.110186 0.67658,1.425369 1.89244,2.880242 2.91133,4.344188 0.71737,1.378685 2.16638,3.171574 3.05669,4.610418 1.00127,1.574567 1.53245,2.56576 2.20089,3.838368 0.73429,1.399373 1.37624,2.812839 1.93074,4.198899 0.56275,1.446416 1.04948,2.869104 1.4059,4.274304 0.39023,1.502589 0.79623,3.041198 0.92156,4.477721 0.31494,1.648107 -0.16211,2.278159 -0.32492,3.730041 -0.44858,1.005975 -0.3777,3.392731 -0.83776,5.225728 -0.40813,1.626078 -1.01353,3.293522 -1.76392,4.890562 -0.78729,1.67558 -1.17224,3.18807 -2.09066,4.43476 -0.5211,1.40941 -2.16757,2.3072 -3.30829,3.21382 -1.17341,0.69898 -2.219,1.32175 -3.40381,1.84234 -1.19443,0.31742 -2.4962,0.84327 -3.77145,1.09284 -1.32586,0.19972 -2.5917,0.36022 -3.9022,0.4018 -1.42296,0.0332 -2.779,-0.51266 -4.18073,-0.62775 -1.493999,-0.62204 -2.927675,-0.3084 -4.398244,-0.51976 -1.597614,-0.23722 -3.062248,-0.51341 -4.633398,-0.78924 -1.623615,-0.3227 -3.746919,-0.75472 -5.417513,-1.05281 -2.035962,-0.44576 -2.715147,-0.32003 -4.262968,-0.55872 -1.472806,-0.0653 -3.594946,-0.49963 -5.533382,-0.72796 -1.653446,-0.15106 -3.516935,-0.19113 -5.404113,-0.30325 -1.826118,-0.1085 -3.47259,-0.24945 -5.300338,-0.17708 -1.647705,0.0652 -3.550101,0.17365 -5.23032,0.35828 -1.841281,0.14752 -2.934823,0.54194 -4.550252,0.78317 -1.48805,0.4106 -3.831692,-0.0656 -5.602926,0.21803 -1.900182,-0.35965 -3.219581,0.54588 -4.813592,0.79055 -1.631628,0.27427 -3.043433,0.89461 -4.643335,1.07653 -1.424736,0.59878 -3.357459,0.29958 -4.955824,0.33026 -1.568604,0.016 -2.983741,0.20177 -4.41156,0.0425 -1.457143,0.0629 -2.92777,-0.46076 -4.279111,-0.893 -1.365021,-0.42918 -2.604724,-0.98707 -3.783933,-1.69417 -1.21807,-0.71836 -2.818396,-1.92899 -3.837999,-2.95445 -1.029384,-1.03531 -1.732462,-2.04423 -2.601677,-3.44249 -0.84793,-1.36402 -1.994464,-2.775695 -2.426285,-4.174269 -0.946678,-1.410864 -0.729686,-3.089062 -0.792492,-4.498129 -0.13246,-1.677428 -0.508266,-3.178432 -0.274419,-4.559461 -0.306836,-1.848062 0.211251,-2.844638 0.721167,-4.255554 0.143681,-1.570313 1.317634,-3.08625 2.14965,-4.632182 0.82552,-1.445202 1.769791,-2.826705 2.724158,-4.279925 1.040367,-1.346511 2.284625,-2.73558 3.32003,-4.16879 1.348302,-1.264023 1.494395,-3.056303 2.504203,-4.460333 0.5176,-1.717204 2.050934,-2.963831 3.143049,-4.380435 0.963471,-1.453048 2.154246,-2.725669 3.168162,-4.072189 1.019343,-1.353728 1.95804,-2.753383 2.760278,-4.134479 0.824298,-1.419075 2.058633,-2.410207 2.833202,-3.865074 1.247124,-1.060344 1.641776,-3.032357 2.412742,-4.559463 0.791258,-1.447503 1.567129,-2.475181 2.29713,-3.913207 0.883363,-1.095128 1.503303,-3.060229 2.303169,-4.547165 0.686423,-1.385693 1.307595,-2.830902 2.098864,-4.135413 0.590914,-1.395135 1.731751,-2.511976 2.601979,-3.694643 0.974374,-1.124427 1.769046,-2.188075 2.716599,-3.207552 0.984938,-0.966663 1.989308,-1.862356 3.075455,-2.726337 1.100574,-0.733947 2.363933,-1.456364 3.610106,-2.130695 1.334658,-0.46208 2.689392,-1.012853 4.06914,-1.47778 1.40591,-0.473742 2.215079,-1.28593 3.856265,-1.385168 z"
         id="path1"
         sodipodi:nodetypes="sssssss"
         inkscape:path-effect="#path-effect3"
         inkscape:original-d="m 66.441543,19.432509 c 18.875425,-1.141347 27.559188,19.205505 39.212577,34.097885 12.36127,15.797024 24.21514,29.923564 15.68503,48.078016 -10.23479,21.78248 -31.872249,5.18538 -55.920543,6.13762 -18.124748,0.71769 -38.501647,10.29034 -48.078021,-5.11468 -9.3272283,-15.004229 7.83415,-32.460276 16.707965,-47.737039 9.067282,-15.609827 14.373693,-34.372222 32.392992,-35.461802 z" />
      <path
         style="fill:#333333;stroke:#333333;stroke-width:0.98215243;stroke-linecap:round;stroke-linejoin:round;stroke-dasharray:none"
         id="circle2"
         inkscape:path-effect="#path-effect4"
         sodipodi:type="arc"
         sodipodi:cx="78.240784"
         sodipodi:cy="70.92247"
         sodipodi:rx="2.1491425"
         sodipodi:ry="2.1491425"
         d="m 80.392514,70.923495 c 0,0.03491 -0.02228,0.04139 -0.02392,0.07589 -0.0209,0.01569 0.05262,0.09674 0.04815,0.139023 0.05446,0.04412 -0.02163,0.04424 -0.02665,0.0767 -0.02009,0.01876 -0.02607,0.06519 -0.03452,0.104641 -0.02039,0.02199 -0.01769,0.07197 -0.0274,0.108091 -0.0097,0.03128 -0.0027,0.07335 -0.01283,0.105282 0.0058,0.03934 -0.03859,0.03137 -0.0497,0.06148 -0.03216,0.0077 9.5e-4,0.08603 -0.01476,0.122595 0.01635,0.04229 -0.02679,0.06102 -0.04133,0.09096 -0.01412,0.02967 -0.01356,0.06743 -0.0292,0.09627 7.8e-5,0.03765 -0.02991,0.05829 -0.04694,0.08648 -0.01492,0.02904 -0.03205,0.05644 -0.05042,0.0839 -0.01572,0.02791 -0.05866,-0.0039 -0.07839,0.02286 -0.04677,-0.02387 -0.06981,0.0342 -0.0974,0.06795 -0.0407,-0.0065 -0.02029,0.05791 -0.0447,0.08567 0.0023,0.02917 -0.04791,0.05678 -0.07367,0.08379 -0.02019,0.02445 -0.04181,0.0471 -0.06455,0.06934 -0.02044,0.02388 -0.04102,0.04742 -0.06466,0.06894 -0.01887,0.02494 0.03721,0.04751 0.01251,0.06835 0.0451,0.03847 -0.09285,-0.0012 -0.136985,0.03022 -0.04411,-0.04378 -0.06166,0.05124 -0.09724,0.07467 -0.02068,0.02154 -0.05266,0.03871 -0.08118,0.05625 -0.02452,0.01959 -0.0046,0.0541 -0.03288,0.07027 0.01329,0.04208 -0.07724,0.03459 -0.117083,0.05403 -0.03076,0.0072 -0.05996,0.02427 -0.09064,0.03771 -0.0303,0.0091 -0.06701,0.01176 -0.09796,0.02398 -0.03641,-0.0023 -0.07101,0.0089 -0.101556,0.02014 -0.03997,-0.0038 -0.06331,-0.01356 -0.09273,-0.0031 -0.03859,-0.02294 -0.07404,0.01837 -0.107892,0.03126 -0.03622,0.005 -0.06245,0.02146 -0.0923,0.03315 -0.03249,0.01 -0.07125,-0.0254 -0.101241,-0.01421 -0.04658,-0.03577 -0.01598,0.04993 -0.04989,0.06873 0.02238,0.03525 -0.06841,0.04124 -0.115864,0.04874 -0.03827,0.006 -0.06461,0.01553 -0.09201,0.01553 -0.03491,0 -0.01731,0.0048 -0.05185,0.0031 1.96e-4,0.0031 -0.123114,-0.03875 -0.174513,-0.04501 -0.04522,-0.03497 -0.03354,0.0024 -0.05935,-0.0017 -0.02118,0.0029 -0.09542,-0.08449 -0.134463,-0.09281 -0.03857,-0.07566 -0.0385,-0.0044 -0.06041,-0.0097 -0.028,-0.0028 -0.02873,-0.0158 -0.06184,-0.02532 -0.0041,-0.01099 -0.09822,-0.04215 -0.139784,-0.05652 -0.03842,-0.02517 -0.02295,7.57e-4 -0.04719,-0.0085 -0.01298,0.0033 -0.0874,-0.04181 -0.125567,-0.05858 -0.0349,-0.02218 -0.05374,-0.02633 -0.07847,-0.03817 -0.03081,-0.01684 -0.07613,-0.08714 -0.102735,-0.101073 -0.03643,-0.06817 -0.04295,-0.04103 -0.05711,-0.04876 -0.03482,-0.03706 -0.05866,-0.07255 -0.0787,-0.08412 -0.03372,-0.05913 -0.03839,-0.05604 -0.05389,-0.06534 -0.02663,-0.04952 -0.04303,-0.09687 -0.0622,-0.108913 -0.01876,-0.08246 -0.0309,-0.05253 -0.04543,-0.0619 -0.02215,-0.04727 -0.03929,-0.02502 -0.05943,-0.03843 -0.02427,-0.01571 0.02702,-0.01889 0.0019,-0.03648 0.03485,-0.01481 -0.05507,-0.05623 -0.09691,-0.08818 0.0011,-0.0177 -0.07032,-0.135806 -0.100285,-0.160371 -0.01691,-0.09475 -0.01852,-0.01663 -0.02663,-0.02333 -0.02471,-0.02183 -0.02693,-0.02324 -0.0486,-0.04176 -0.01016,-0.0099 -0.05801,-0.05094 -0.08455,-0.07522 -0.0233,-0.02184 1.63e-4,-0.0256 -0.01936,-0.04479 0.01192,-0.01622 -0.05655,-0.05709 -0.08411,-0.08715 -0.01894,-0.02107 0.0045,-0.03339 -0.0141,-0.05588 0.01799,-0.02068 -0.05268,-0.06479 -0.07763,-0.09823 -0.01877,-0.025 -0.04823,-0.07004 -0.06438,-0.09417 -0.02644,-0.04162 4.02e-4,-0.02456 -0.01047,-0.04256 0.0046,-0.02058 -0.03083,-0.05818 -0.04831,-0.09221 -0.0081,-0.02326 -0.01496,-0.04848 -0.02836,-0.08074 0.0013,-0.02077 -0.0035,-0.05053 -0.01616,-0.08799 0.01276,-0.01658 0.0226,-0.05849 0.0091,-0.09976 -0.01117,-0.03424 -0.08842,-0.133704 -0.08842,-0.163894 0,-0.03491 0.0064,-0.06481 0.0081,-0.09923 0.0073,-0.03106 -0.0091,-0.0962 -0.0056,-0.131474 -0.01091,-0.05102 0.0607,-0.04399 0.06428,-0.06986 0.05956,-0.02468 0.06337,-0.04418 0.06935,-0.07656 0.06003,-0.01365 0.01373,-0.100661 0.02173,-0.135099 0.005,-0.05239 0.0047,-0.05023 0.01027,-0.07154 0.002,-0.03615 0.04738,-0.0548 0.05609,-0.0832 0.04013,-0.02498 0.01396,-0.06239 0.02348,-0.0897 0.0061,-0.03473 0.0177,-0.123608 0.0284,-0.150793 0.0018,-0.07849 0.01144,-0.01795 0.01561,-0.02808 0.0154,-0.02687 0.04272,-0.04842 0.05597,-0.07676 0.03131,-0.0188 0.02098,-0.07859 0.03545,-0.106181 0.0058,-0.04491 0.01467,-0.06321 0.02751,-0.08547 0.0043,-0.04212 0.08378,-0.02665 0.0989,-0.05022 0.06977,-0.0011 0.02315,-0.05881 0.03867,-0.08101 0.0099,-0.03694 0.02428,-0.05914 0.04181,-0.08191 0.0091,-0.03615 0.0372,-0.04839 0.05684,-0.07128 0.02022,-0.02488 0.04468,-0.0476 0.06658,-0.07037 0.02443,-0.02262 0.06131,-0.0421 0.08427,-0.06339 0.03793,-0.01673 0.02237,-0.08382 0.04406,-0.102041 0.0021,-0.06402 0.0431,-0.06257 0.06596,-0.0794 0.02242,-0.04395 0.104606,-0.01403 0.129229,-0.02954 0.07415,0.0089 0.03184,-0.08513 0.04928,-0.09523 0.01893,-0.07634 0.04261,-0.03371 0.06465,-0.04451 0.03079,-0.02504 0.06359,-0.02947 0.09619,-0.0415 0.03339,-0.01266 0.123417,-4.1e-4 0.158187,-0.0096 0.07245,0.01823 0.02544,-0.01878 0.04203,-0.02274 0.02729,-0.0186 0.111539,0.0063 0.14693,2.47e-4 0.06216,0.01826 0.03621,-0.01332 0.05661,-0.01672 0.02943,-0.01203 0.06143,-0.08835 0.09647,-0.09284 0.03104,-0.08237 0.06082,-0.02977 0.103841,-0.02178 0.01802,-0.02217 0.141934,0.02876 0.186904,0.04359 0.07623,0.01147 0.06316,0.02366 0.07229,0.02736 0.03167,0.01283 0.01517,0.01272 0.06536,0.01272 0.03491,0 0.08778,0.008 0.122262,0.0096 0.04637,0.0085 0.06648,0.01204 0.09436,0.01444 0.04045,0.01144 0.06238,0.0078 0.0922,0.01164 0.03476,0.0062 0.115418,0.02137 0.147524,0.02696 0.0663,0.01507 0.0799,0.01908 0.09565,0.02219 0.06439,0.01657 0.08659,0.0074 0.102619,0.01099 0.06919,0.0042 0.105661,0.01721 0.120434,0.02083 0.083,0.01219 0.03428,0.01868 0.04142,0.02052 0.04444,0.02142 0.0607,0.02217 0.08451,0.02924 0.03921,0.01727 0.04989,0.01238 0.07614,0.02146 0.02935,0.0073 0.06026,0.0084 0.09213,0.0215 0.02937,-0.001 0.09257,0.04711 0.125876,0.06351 0.04476,0.02779 0.04923,0.02671 0.06993,0.03805 0.0341,0.02021 0.03931,-0.01241 0.06538,0.0039 0.0261,-0.01744 0.0785,0.04863 0.116252,0.07788 0.02732,0.01804 0.05676,0.04513 0.08407,0.06984 0.02578,0.02277 0.04055,0.02332 0.06527,0.04919 0.01933,0.0067 0.06048,0.06631 0.08874,0.10178 0.02159,0.0271 0.04886,0.05987 0.06891,0.08867 0.02455,0.0308 0.02669,0.04271 0.04349,0.07 0.01128,0.02275 0.05646,0.07918 0.07485,0.113764 0.02983,0.03679 0.04291,0.06276 0.05469,0.08751 0.02945,0.03869 0.05422,0.06928 0.06469,0.09416 0.0409,0.04238 0.01752,0.04374 0.02569,0.06603 0.01158,0.03239 0.09476,0.07496 0.104562,0.108401 0.07967,0.03559 0.02523,0.0616 0.03055,0.08847 0.01762,0.0419 0.0041,0.0586 0.0072,0.09249 -0.0037,0.02909 0.0032,0.07403 0.0036,0.112878 -0.0016,0.03152 -6.56e-4,0.06702 -0.0018,0.101598 -0.0015,0.03192 0.0044,0.072 0.0026,0.105532 0.0053,0.03745 -0.0065,0.05838 -0.009,0.08977 -0.0053,0.02981 -0.0079,0.05638 -0.01021,0.09145 -0.0049,0.02327 -0.01543,0.04037 -0.01609,0.07975 -5.85e-4,0.03531 0.01379,0.105757 0.01379,0.138957 z"
         transform="translate(-2.687137,-0.19193836)" />
      <path
         style="fill:#333333;stroke:#333333;stroke-width:0.98215243;stroke-linecap:round;stroke-linejoin:round;stroke-dasharray:none"
         id="path4"
         inkscape:path-effect="#path-effect6"
         sodipodi:type="arc"
         sodipodi:cx="78.240784"
         sodipodi:cy="70.92247"
         sodipodi:rx="2.1491425"
         sodipodi:ry="2.1491425"
         d="m 80.392514,70.923495 c 0,0.03491 -0.02228,0.04139 -0.02392,0.07589 -0.0209,0.01569 0.05262,0.09674 0.04815,0.139023 0.05446,0.04412 -0.02163,0.04424 -0.02665,0.0767 -0.02009,0.01876 -0.02607,0.06519 -0.03452,0.104641 -0.02039,0.02199 -0.01769,0.07197 -0.0274,0.108091 -0.0097,0.03128 -0.0027,0.07335 -0.01283,0.105282 0.0058,0.03934 -0.03859,0.03137 -0.0497,0.06148 -0.03216,0.0077 9.5e-4,0.08603 -0.01476,0.122595 0.01635,0.04229 -0.02679,0.06102 -0.04133,0.09096 -0.01412,0.02967 -0.01356,0.06743 -0.0292,0.09627 7.8e-5,0.03765 -0.02991,0.05829 -0.04694,0.08648 -0.01492,0.02904 -0.03205,0.05644 -0.05042,0.0839 -0.01572,0.02791 -0.05866,-0.0039 -0.07839,0.02286 -0.04677,-0.02387 -0.06981,0.0342 -0.0974,0.06795 -0.0407,-0.0065 -0.02029,0.05791 -0.0447,0.08567 0.0023,0.02917 -0.04791,0.05678 -0.07367,0.08379 -0.02019,0.02445 -0.04181,0.0471 -0.06455,0.06934 -0.02044,0.02388 -0.04102,0.04742 -0.06466,0.06894 -0.01887,0.02494 0.03721,0.04751 0.01251,0.06835 0.0451,0.03847 -0.09285,-0.0012 -0.136985,0.03022 -0.04411,-0.04378 -0.06166,0.05124 -0.09724,0.07467 -0.02068,0.02154 -0.05266,0.03871 -0.08118,0.05625 -0.02452,0.01959 -0.0046,0.0541 -0.03288,0.07027 0.01329,0.04208 -0.07724,0.03459 -0.117083,0.05403 -0.03076,0.0072 -0.05996,0.02427 -0.09064,0.03771 -0.0303,0.0091 -0.06701,0.01176 -0.09796,0.02398 -0.03641,-0.0023 -0.07101,0.0089 -0.101556,0.02014 -0.03997,-0.0038 -0.06331,-0.01356 -0.09273,-0.0031 -0.03859,-0.02294 -0.07404,0.01837 -0.107892,0.03126 -0.03622,0.005 -0.06245,0.02146 -0.0923,0.03315 -0.03249,0.01 -0.07125,-0.0254 -0.101241,-0.01421 -0.04658,-0.03577 -0.01598,0.04993 -0.04989,0.06873 0.02238,0.03525 -0.06841,0.04124 -0.115864,0.04874 -0.03827,0.006 -0.06461,0.01553 -0.09201,0.01553 -0.03491,0 -0.01731,0.0048 -0.05185,0.0031 1.96e-4,0.0031 -0.123114,-0.03875 -0.174513,-0.04501 -0.04522,-0.03497 -0.03354,0.0024 -0.05935,-0.0017 -0.02118,0.0029 -0.09542,-0.08449 -0.134463,-0.09281 -0.03857,-0.07566 -0.0385,-0.0044 -0.06041,-0.0097 -0.028,-0.0028 -0.02873,-0.0158 -0.06184,-0.02532 -0.0041,-0.01099 -0.09822,-0.04215 -0.139784,-0.05652 -0.03842,-0.02517 -0.02295,7.57e-4 -0.04719,-0.0085 -0.01298,0.0033 -0.0874,-0.04181 -0.125567,-0.05858 -0.0349,-0.02218 -0.05374,-0.02633 -0.07847,-0.03817 -0.03081,-0.01684 -0.07613,-0.08714 -0.102735,-0.101073 -0.03643,-0.06817 -0.04295,-0.04103 -0.05711,-0.04876 -0.03482,-0.03706 -0.05866,-0.07255 -0.0787,-0.08412 -0.03372,-0.05913 -0.03839,-0.05604 -0.05389,-0.06534 -0.02663,-0.04952 -0.04303,-0.09687 -0.0622,-0.108913 -0.01876,-0.08246 -0.0309,-0.05253 -0.04543,-0.0619 -0.02215,-0.04727 -0.03929,-0.02502 -0.05943,-0.03843 -0.02427,-0.01571 0.02702,-0.01889 0.0019,-0.03648 0.03485,-0.01481 -0.05507,-0.05623 -0.09691,-0.08818 0.0011,-0.0177 -0.07032,-0.135806 -0.100285,-0.160371 -0.01691,-0.09475 -0.01852,-0.01663 -0.02663,-0.02333 -0.02471,-0.02183 -0.02693,-0.02324 -0.0486,-0.04176 -0.01016,-0.0099 -0.05801,-0.05094 -0.08455,-0.07522 -0.0233,-0.02184 1.63e-4,-0.0256 -0.01936,-0.04479 0.01192,-0.01622 -0.05655,-0.05709 -0.08411,-0.08715 -0.01894,-0.02107 0.0045,-0.03339 -0.0141,-0.05588 0.01799,-0.02068 -0.05268,-0.06479 -0.07763,-0.09823 -0.01877,-0.025 -0.04823,-0.07004 -0.06438,-0.09417 -0.02644,-0.04162 4.02e-4,-0.02456 -0.01047,-0.04256 0.0046,-0.02058 -0.03083,-0.05818 -0.04831,-0.09221 -0.0081,-0.02326 -0.01496,-0.04848 -0.02836,-0.08074 0.0013,-0.02077 -0.0035,-0.05053 -0.01616,-0.08799 0.01276,-0.01658 0.0226,-0.05849 0.0091,-0.09976 -0.01117,-0.03424 -0.08842,-0.133704 -0.08842,-0.163894 0,-0.03491 0.0064,-0.06481 0.0081,-0.09923 0.0073,-0.03106 -0.0091,-0.0962 -0.0056,-0.131474 -0.01091,-0.05102 0.0607,-0.04399 0.06428,-0.06986 0.05956,-0.02468 0.06337,-0.04418 0.06935,-0.07656 0.06003,-0.01365 0.01373,-0.100661 0.02173,-0.135099 0.005,-0.05239 0.0047,-0.05023 0.01027,-0.07154 0.002,-0.03615 0.04738,-0.0548 0.05609,-0.0832 0.04013,-0.02498 0.01396,-0.06239 0.02348,-0.0897 0.0061,-0.03473 0.0177,-0.123608 0.0284,-0.150793 0.0018,-0.07849 0.01144,-0.01795 0.01561,-0.02808 0.0154,-0.02687 0.04272,-0.04842 0.05597,-0.07676 0.03131,-0.0188 0.02098,-0.07859 0.03545,-0.106181 0.0058,-0.04491 0.01467,-0.06321 0.02751,-0.08547 0.0043,-0.04212 0.08378,-0.02665 0.0989,-0.05022 0.06977,-0.0011 0.02315,-0.05881 0.03867,-0.08101 0.0099,-0.03694 0.02428,-0.05914 0.04181,-0.08191 0.0091,-0.03615 0.0372,-0.04839 0.05684,-0.07128 0.02022,-0.02488 0.04468,-0.0476 0.06658,-0.07037 0.02443,-0.02262 0.06131,-0.0421 0.08427,-0.06339 0.03793,-0.01673 0.02237,-0.08382 0.04406,-0.102041 0.0021,-0.06402 0.0431,-0.06257 0.06596,-0.0794 0.02242,-0.04395 0.104606,-0.01403 0.129229,-0.02954 0.07415,0.0089 0.03184,-0.08513 0.04928,-0.09523 0.01893,-0.07634 0.04261,-0.03371 0.06465,-0.04451 0.03079,-0.02504 0.06359,-0.02947 0.09619,-0.0415 0.03339,-0.01266 0.123417,-4.1e-4 0.158187,-0.0096 0.07245,0.01823 0.02544,-0.01878 0.04203,-0.02274 0.02729,-0.0186 0.111539,0.0063 0.14693,2.47e-4 0.06216,0.01826 0.03621,-0.01332 0.05661,-0.01672 0.02943,-0.01203 0.06143,-0.08835 0.09647,-0.09284 0.03104,-0.08237 0.06082,-0.02977 0.103841,-0.02178 0.01802,-0.02217 0.141934,0.02876 0.186904,0.04359 0.07623,0.01147 0.06316,0.02366 0.07229,0.02736 0.03167,0.01283 0.01517,0.01272 0.06536,0.01272 0.03491,0 0.08778,0.008 0.122262,0.0096 0.04637,0.0085 0.06648,0.01204 0.09436,0.01444 0.04045,0.01144 0.06238,0.0078 0.0922,0.01164 0.03476,0.0062 0.115418,0.02137 0.147524,0.02696 0.0663,0.01507 0.0799,0.01908 0.09565,0.02219 0.06439,0.01657 0.08659,0.0074 0.102619,0.01099 0.06919,0.0042 0.105661,0.01721 0.120434,0.02083 0.083,0.01219 0.03428,0.01868 0.04142,0.02052 0.04444,0.02142 0.0607,0.02217 0.08451,0.02924 0.03921,0.01727 0.04989,0.01238 0.07614,0.02146 0.02935,0.0073 0.06026,0.0084 0.09213,0.0215 0.02937,-0.001 0.09257,0.04711 0.125876,0.06351 0.04476,0.02779 0.04923,0.02671 0.06993,0.03805 0.0341,0.02021 0.03931,-0.01241 0.06538,0.0039 0.0261,-0.01744 0.0785,0.04863 0.116252,0.07788 0.02732,0.01804 0.05676,0.04513 0.08407,0.06984 0.02578,0.02277 0.04055,0.02332 0.06527,0.04919 0.01933,0.0067 0.06048,0.06631 0.08874,0.10178 0.02159,0.0271 0.04886,0.05987 0.06891,0.08867 0.02455,0.0308 0.02669,0.04271 0.04349,0.07 0.01128,0.02275 0.05646,0.07918 0.07485,0.113764 0.02983,0.03679 0.04291,0.06276 0.05469,0.08751 0.02945,0.03869 0.05422,0.06928 0.06469,0.09416 0.0409,0.04238 0.01752,0.04374 0.02569,0.06603 0.01158,0.03239 0.09476,0.07496 0.104562,0.108401 0.07967,0.03559 0.02523,0.0616 0.03055,0.08847 0.01762,0.0419 0.0041,0.0586 0.0072,0.09249 -0.0037,0.02909 0.0032,0.07403 0.0036,0.112878 -0.0016,0.03152 -6.56e-4,0.06702 -0.0018,0.101598 -0.0015,0.03192 0.0044,0.072 0.0026,0.105532 0.0053,0.03745 -0.0065,0.05838 -0.009,0.08977 -0.0053,0.02981 -0.0079,0.05638 -0.01021,0.09145 -0.0049,0.02327 -0.01543,0.04037 -0.01609,0.07975 -5.85e-4,0.03531 0.01379,0.105757 0.01379,0.138957 z"
         transform="translate(-22.840664,-0.19193836)" />
    </g>
  </g>
</svg>
